<svg xmlns="http://www.w3.org/2000/svg" viewBox="0 0 127 127" enable-background="new 0 0 127 127">
    <filter filterUnits="userSpaceOnUse" height="127.001" id="a" width="127.002" x="0" y="0">
        <feOffset dy="3"/>
        <feGaussianBlur result="b" stdDeviation="3"/>
        <feFlood flood-opacity=".161"/>
        <feComposite in2="b" operator="in"/>
        <feComposite in="SourceGraphic"/>
    </filter>
    <g filter="url(#a)">
        <circle cx="63.5" cy="60.5" r="54.5"/>
    </g>
    <path d="M45.6 92.8c0 .5-.5.8-1.2.8-.7.1-1.3-.3-1.3-.8s.5-.8 1.2-.8c.7-.1 1.3.3 1.3.8zm-7-1c-.2.5.3 1 1 1.1.6.2 1.3 0 1.4-.5.1-.5-.3-1-1-1.2-.6-.1-1.2.1-1.4.6zm10-.4c-.7.2-1.1.6-1 1.1.1.5.7.7 1.3.6.7-.2 1.1-.6 1-1-.1-.5-.7-.8-1.3-.7zM63.4 5.1c-31.3 0-55.1 23.7-55.1 55 0 25 15.7 46.3 38.2 53.9 2.9.5 3.9-1.3 3.9-2.7 0-1.4-.1-9.1-.1-13.8 0 0-15.8 3.4-19.1-6.7 0 0-2.6-6.6-6.3-8.2 0 0-5.2-3.5.4-3.5 0 0 5.6.5 8.7 5.8 4.9 8.7 13.2 6.2 16.4 4.7.5-3.6 2-6.1 3.6-7.6-12.6-1.5-25.3-3.3-25.3-25 0-6.2 1.7-9.3 5.3-13.3-.6-1.5-2.5-7.5.6-15.3 4.7-1.5 15.5 6.1 15.5 6.1 4.5-1.3 9.3-1.9 14.1-1.9s9.6.7 14.1 1.9c0 0 10.8-7.6 15.5-6.1 3.1 7.8 1.2 13.8.6 15.3 3.6 4 5.8 7.1 5.8 13.3 0 21.7-13.3 23.5-25.8 24.9 2.1 1.8 3.8 5.2 3.8 10.4 0 7.6-.1 17-.1 18.8 0 1.5 1 3.2 3.9 2.7 22.5-7.5 37.8-28.8 37.8-53.8.1-31.2-25.2-54.9-56.4-54.9zM30.1 82.8c-.3.2-.2.7.2 1.2.4.4.9.5 1.2.2.3-.2.2-.7-.2-1.2-.3-.4-.9-.5-1.2-.2zM27.7 81c-.2.3.1.7.5.9.4.2.8.2 1-.2.2-.3-.1-.7-.5-.9-.5-.1-.8-.1-1 .2zm7.3 8c-.4.3-.2 1 .3 1.4.5.5 1.2.6 1.5.2.3-.3.2-1-.3-1.4-.5-.5-1.2-.6-1.5-.2zm-2.6-3.3c-.4.2-.4.8 0 1.3s1 .7 1.3.5c.4-.3.4-.9 0-1.4-.3-.5-.9-.7-1.3-.4z" fill="#fff"/>
</svg>
